<svg width="612" height="237" viewBox="0 0 612 237" fill="none" xmlns="http://www.w3.org/2000/svg">
<path d="M331.989 165.139C332.029 167.479 331.439 169.789 330.289 171.829C329.179 173.769 327.579 175.369 325.649 176.479C323.619 177.639 321.319 178.229 318.989 178.189C316.699 178.219 314.439 177.639 312.439 176.509C311.669 176.059 310.939 175.539 310.279 174.939C310.949 174.669 311.619 174.369 312.309 174.059C312.799 173.829 313.279 173.599 313.749 173.359C313.889 173.459 314.039 173.549 314.189 173.639C315.639 174.499 317.299 174.949 318.989 174.929C320.689 174.959 322.369 174.509 323.839 173.639C325.249 172.799 326.419 171.599 327.219 170.159C328.059 168.629 328.489 166.899 328.459 165.159C328.459 164.459 328.399 163.759 328.269 163.079C329.039 162.339 329.799 161.579 330.529 160.789C330.729 160.569 330.919 160.359 331.109 160.139C331.719 161.739 332.019 163.439 331.999 165.159L331.989 165.139Z" fill="#72C9B6"/>
<path d="M329.02 156.569C328.31 157.549 327.55 158.489 326.73 159.379C325.98 158.279 324.99 157.349 323.83 156.679C322.36 155.829 320.68 155.389 318.98 155.419C317.3 155.399 315.64 155.829 314.18 156.679C312.76 157.509 311.6 158.719 310.82 160.159C310 161.689 309.58 163.399 309.61 165.139C309.58 166.879 310 168.609 310.82 170.139C310.89 170.259 310.96 170.379 311.03 170.499C309.94 170.949 308.82 171.339 307.69 171.659C306.62 169.719 306.07 167.529 306.07 165.319V143.239C306.04 142.749 306.22 142.269 306.56 141.909C306.92 141.569 307.4 141.389 307.89 141.419C308.37 141.399 308.83 141.579 309.17 141.909C309.51 142.269 309.69 142.749 309.66 143.239V156.989C310.71 155.499 312.11 154.289 313.74 153.459C315.49 152.559 317.43 152.099 319.4 152.129C321.66 152.099 323.88 152.689 325.83 153.839C327.04 154.559 328.11 155.479 329.01 156.569H329.02Z" fill="#3A2968"/>
<path d="M336.429 156.438C335.999 156.448 335.579 156.288 335.269 155.998C334.959 155.718 334.789 155.318 334.799 154.898C334.779 154.468 334.949 154.048 335.269 153.748C335.579 153.448 335.999 153.288 336.429 153.308H348.309C348.739 153.298 349.159 153.458 349.469 153.748C349.779 154.048 349.949 154.458 349.939 154.898C349.939 155.318 349.779 155.718 349.469 155.998C349.159 156.298 348.739 156.458 348.309 156.438H336.429ZM348.039 177.958C346.489 177.988 344.969 177.578 343.639 176.788C342.349 176.008 341.299 174.908 340.589 173.588C339.829 172.158 339.439 170.558 339.469 168.938V146.068C339.449 145.588 339.629 145.108 339.959 144.758C340.289 144.408 340.759 144.228 341.239 144.248C341.729 144.228 342.199 144.418 342.539 144.758C342.879 145.108 343.069 145.578 343.049 146.068V168.938C342.989 170.368 343.489 171.768 344.449 172.848C345.369 173.858 346.679 174.408 348.039 174.368H349.299C349.759 174.348 350.199 174.538 350.509 174.878C350.829 175.238 350.989 175.708 350.979 176.188C350.999 176.678 350.789 177.148 350.419 177.478C350.029 177.808 349.529 177.988 349.019 177.968H348.039V177.958Z" fill="#3A2968"/>
<path d="M358.149 147.508C357.479 147.508 356.839 147.248 356.379 146.758C355.889 146.278 355.619 145.618 355.629 144.938C355.599 144.238 355.879 143.558 356.399 143.088C356.889 142.648 357.529 142.398 358.189 142.408C358.839 142.408 359.459 142.648 359.939 143.088C360.459 143.558 360.739 144.238 360.709 144.938C360.719 145.618 360.449 146.278 359.959 146.758C359.479 147.248 358.829 147.518 358.139 147.508H358.149ZM358.189 177.958C357.699 177.988 357.219 177.808 356.859 177.468C356.519 177.108 356.339 176.628 356.369 176.138V154.198C356.339 153.708 356.519 153.228 356.859 152.868C357.219 152.528 357.699 152.348 358.189 152.378C358.669 152.358 359.129 152.538 359.469 152.868C359.809 153.228 359.979 153.708 359.959 154.198V176.138C359.989 176.628 359.809 177.108 359.469 177.468C359.129 177.798 358.659 177.978 358.189 177.958Z" fill="#3A2968"/>
<path d="M376.829 178.189C374.969 178.189 373.129 177.869 371.379 177.249C369.699 176.709 368.189 175.739 366.999 174.439C366.669 174.109 366.519 173.639 366.579 173.179C366.649 172.699 366.899 172.269 367.279 171.959C367.659 171.659 368.149 171.529 368.629 171.589C369.079 171.639 369.489 171.859 369.789 172.199C370.589 173.109 371.609 173.799 372.749 174.209C374.059 174.689 375.439 174.929 376.829 174.909C379.129 174.909 380.789 174.509 381.819 173.719C382.769 173.059 383.359 171.999 383.399 170.839C383.399 169.699 382.789 168.649 381.819 168.059C380.759 167.329 379.019 166.759 376.599 166.349C373.459 165.849 371.159 164.979 369.699 163.729C368.329 162.659 367.519 161.029 367.509 159.289C367.459 157.859 367.899 156.449 368.769 155.309C369.649 154.219 370.809 153.399 372.119 152.919C373.599 152.379 375.159 152.109 376.729 152.129C378.579 152.079 380.419 152.449 382.109 153.209C383.539 153.869 384.799 154.859 385.769 156.109C386.059 156.459 386.199 156.919 386.139 157.369C386.069 157.819 385.789 158.219 385.389 158.449C384.999 158.669 384.549 158.749 384.109 158.659C383.629 158.579 383.199 158.339 382.879 157.979C382.149 157.109 381.219 156.429 380.179 155.989C379.049 155.549 377.849 155.339 376.639 155.359C375.199 155.289 373.769 155.649 372.539 156.409C371.599 156.959 371.019 157.959 370.999 159.049C370.979 159.719 371.189 160.379 371.579 160.919C372.109 161.559 372.799 162.039 373.579 162.319C374.859 162.819 376.199 163.159 377.559 163.349C379.479 163.599 381.339 164.159 383.079 165.009C384.259 165.589 385.259 166.479 385.969 167.579C386.539 168.549 386.839 169.659 386.829 170.779C386.849 172.169 386.399 173.539 385.549 174.639C384.619 175.799 383.399 176.699 382.009 177.239C380.349 177.889 378.589 178.209 376.809 178.179L376.829 178.189Z" fill="#3A2968"/>
<path d="M214.71 163.409V156.689H217.33C217.92 156.689 218.42 156.779 218.84 156.969C219.26 157.159 219.58 157.419 219.8 157.779C220.02 158.129 220.14 158.549 220.14 159.039C220.14 159.529 220.03 159.939 219.8 160.289C219.57 160.639 219.26 160.909 218.84 161.099C218.42 161.289 217.92 161.379 217.33 161.379H215.24L215.67 160.929V163.419H214.71V163.409ZM215.67 161.019L215.24 160.539H217.3C217.91 160.539 218.38 160.409 218.7 160.149C219.02 159.889 219.18 159.519 219.18 159.039C219.18 158.559 219.02 158.189 218.7 157.929C218.38 157.669 217.92 157.539 217.3 157.539H215.24L215.67 157.059V161.029V161.019Z" fill="#3A2968"/>
<path d="M225.64 163.489C225.13 163.489 224.65 163.399 224.21 163.229C223.77 163.059 223.39 162.819 223.07 162.499C222.75 162.189 222.5 161.829 222.32 161.409C222.14 160.989 222.05 160.539 222.05 160.049C222.05 159.559 222.14 159.099 222.32 158.689C222.5 158.279 222.75 157.909 223.07 157.599C223.39 157.289 223.77 157.049 224.2 156.879C224.64 156.709 225.11 156.619 225.63 156.619C226.15 156.619 226.61 156.699 227.05 156.869C227.49 157.039 227.86 157.279 228.18 157.589C228.5 157.899 228.75 158.259 228.93 158.679C229.11 159.099 229.19 159.549 229.19 160.049C229.19 160.549 229.1 161.009 228.93 161.419C228.75 161.839 228.5 162.199 228.18 162.509C227.86 162.819 227.48 163.059 227.05 163.229C226.62 163.399 226.15 163.479 225.63 163.479L225.64 163.489ZM225.64 162.629C226.01 162.629 226.35 162.569 226.67 162.439C226.99 162.309 227.26 162.129 227.5 161.899C227.73 161.669 227.92 161.389 228.05 161.079C228.18 160.769 228.25 160.419 228.25 160.049C228.25 159.679 228.18 159.339 228.05 159.019C227.92 158.709 227.74 158.429 227.5 158.199C227.27 157.969 226.99 157.789 226.67 157.659C226.35 157.529 226.01 157.469 225.64 157.469C225.27 157.469 224.91 157.529 224.6 157.659C224.28 157.789 224.01 157.969 223.77 158.199C223.53 158.429 223.35 158.709 223.22 159.019C223.09 159.329 223.02 159.679 223.02 160.049C223.02 160.419 223.09 160.759 223.22 161.079C223.35 161.389 223.54 161.669 223.77 161.899C224.01 162.129 224.28 162.309 224.6 162.439C224.92 162.569 225.26 162.629 225.64 162.629Z" fill="#3A2968"/>
<path d="M232.96 163.409L230.71 156.689H231.7L233.76 162.889H233.26L235.4 156.689H236.28L238.37 162.889H237.89L239.98 156.689H240.89L238.64 163.409H237.63L235.67 157.659H235.93L233.96 163.409H232.93H232.96Z" fill="#3A2968"/>
<path d="M243.04 163.409V156.689H247.78V157.519H244V162.569H247.92V163.399H243.04V163.409ZM243.91 160.399V159.579H247.37V160.399H243.91Z" fill="#3A2968"/>
<path d="M250.43 163.409V156.689H253.05C253.92 156.689 254.61 156.899 255.1 157.309C255.59 157.719 255.85 158.299 255.85 159.029C255.85 159.519 255.74 159.929 255.51 160.279C255.28 160.629 254.97 160.899 254.55 161.079C254.13 161.259 253.63 161.359 253.04 161.359H250.95L251.38 160.919V163.409H250.42H250.43ZM251.39 161.019L250.96 160.549H253.02C253.63 160.549 254.1 160.419 254.42 160.149C254.74 159.879 254.9 159.509 254.9 159.029C254.9 158.549 254.74 158.179 254.42 157.919C254.1 157.659 253.64 157.529 253.02 157.529H250.96L251.39 157.049V161.019ZM254.92 163.409L253.21 160.969H254.24L255.97 163.409H254.92Z" fill="#3A2968"/>
<path d="M258.37 163.409V156.689H263.11V157.519H259.33V162.569H263.25V163.399H258.37V163.409ZM259.24 160.399V159.579H262.7V160.399H259.24Z" fill="#3A2968"/>
<path d="M265.76 163.409V156.689H268.59C269.31 156.689 269.94 156.829 270.49 157.109C271.04 157.389 271.46 157.789 271.77 158.289C272.07 158.799 272.23 159.379 272.23 160.049C272.23 160.719 272.08 161.299 271.77 161.809C271.47 162.319 271.04 162.709 270.49 162.989C269.94 163.269 269.31 163.409 268.59 163.409H265.76ZM266.72 162.569H268.53C269.09 162.569 269.57 162.459 269.97 162.249C270.38 162.039 270.69 161.739 270.92 161.359C271.14 160.979 271.26 160.539 271.26 160.039C271.26 159.539 271.15 159.089 270.92 158.719C270.7 158.339 270.38 158.049 269.97 157.839C269.56 157.629 269.08 157.519 268.53 157.519H266.72V162.569Z" fill="#3A2968"/>
<path d="M278.19 163.409V156.689H281.2C281.97 156.689 282.57 156.849 282.99 157.159C283.41 157.469 283.61 157.889 283.61 158.429C283.61 158.789 283.53 159.099 283.37 159.349C283.21 159.599 282.99 159.789 282.71 159.929C282.44 160.059 282.14 160.129 281.82 160.129L281.99 159.839C282.37 159.839 282.71 159.909 283.01 160.039C283.3 160.169 283.54 160.369 283.71 160.629C283.88 160.889 283.97 161.209 283.97 161.589C283.97 162.169 283.75 162.609 283.32 162.929C282.89 163.249 282.25 163.409 281.4 163.409H278.19ZM279.15 162.629H281.36C281.89 162.629 282.3 162.539 282.58 162.359C282.86 162.179 283 161.899 283 161.519C283 161.139 282.86 160.839 282.58 160.669C282.3 160.499 281.89 160.399 281.36 160.399H279.07V159.619H281.12C281.61 159.619 281.98 159.529 282.25 159.349C282.52 159.169 282.65 158.899 282.65 158.539C282.65 158.179 282.52 157.909 282.25 157.729C281.98 157.549 281.6 157.459 281.12 157.459H279.15V162.619V162.629Z" fill="#3A2968"/>
<path d="M287.51 163.409V160.839L287.73 161.439L284.84 156.699H285.87L288.3 160.699H287.74L290.18 156.699H291.13L288.25 161.439L288.46 160.839V163.409H287.51Z" fill="#3A2968"/>
<path d="M96.5001 75.7598V100.88L90.1201 92.9098V75.7598H96.5001Z" fill="#72C9B6"/>
<path d="M58.0898 75.7598V120.42H64.4698V87.1398L91.2698 120.42H96.5098V117.07L82.9298 100.11L63.3398 75.7598H58.0998H58.0898Z" fill="#A614C3"/>
<path d="M136.95 120.929C133.71 120.959 130.5 120.369 127.48 119.199C124.66 118.119 122.1 116.479 119.92 114.389C117.79 112.329 116.1 109.869 114.94 107.149C113.73 104.289 113.12 101.199 113.15 98.0892C113.12 94.9792 113.72 91.8992 114.94 89.0292C116.1 86.3092 117.79 83.8392 119.92 81.7892C122.08 79.6992 124.64 78.0692 127.45 76.9792C130.48 75.8092 133.7 75.2192 136.95 75.2492C140.17 75.2192 143.36 75.7892 146.36 76.9392C149.16 78.0192 151.72 79.6492 153.89 81.7192C156.03 83.7592 157.72 86.2292 158.87 88.9592C160.07 91.8492 160.66 94.9592 160.62 98.0892C160.66 101.219 160.06 104.319 158.87 107.209C157.73 109.939 156.03 112.399 153.89 114.449C151.72 116.529 149.16 118.159 146.36 119.239C143.36 120.389 140.16 120.959 136.95 120.929ZM136.95 115.249C139.3 115.269 141.63 114.839 143.81 113.969C145.87 113.149 147.73 111.929 149.3 110.369C150.86 108.809 152.09 106.949 152.93 104.909C153.82 102.749 154.26 100.429 154.24 98.0892C154.26 95.7492 153.82 93.4292 152.93 91.2592C152.09 89.2192 150.85 87.3692 149.29 85.8092C147.72 84.2492 145.86 83.0192 143.8 82.1992C141.62 81.3392 139.29 80.8992 136.94 80.9292C134.57 80.8992 132.22 81.3392 130.02 82.1992C125.86 83.8592 122.55 87.1192 120.84 91.2592C119.95 93.4292 119.51 95.7492 119.53 98.0892C119.51 100.429 119.95 102.749 120.84 104.909C122.55 109.049 125.87 112.319 130.03 113.969C132.23 114.839 134.58 115.269 136.95 115.249Z" fill="#A614C3"/>
<path d="M176.09 120.42V75.7598H193.51C199.29 75.7598 203.85 77.1298 207.16 79.8698C210.48 82.6098 212.14 86.4298 212.13 91.3198C212.21 94.2498 211.44 97.1398 209.9 99.6398C208.35 102.01 206.13 103.87 203.52 104.97C200.35 106.28 196.94 106.91 193.51 106.82H179.6L182.47 103.88V120.4H176.09V120.42ZM182.47 104.53L179.6 101.41H193.32C197.4 101.41 200.5 100.53 202.6 98.7598C204.7 96.9898 205.76 94.5198 205.76 91.3298C205.76 88.1398 204.71 85.6698 202.6 83.9298C200.49 82.1898 197.4 81.3098 193.32 81.3098H179.6L182.47 78.1198V104.53ZM205.95 120.42L194.6 104.22H201.42L212.9 120.42H205.94H205.95Z" fill="#A614C3"/>
<path d="M231.16 120.42V75.7598H251.19C256.34 75.7598 260.29 76.7898 263.06 78.8498C265.77 80.7998 267.32 83.9698 267.21 87.2998C267.28 89.4598 266.72 91.5898 265.58 93.4298C264.5 95.0798 262.99 96.4098 261.21 97.2598C259.36 98.1598 257.33 98.6198 255.28 98.5998L256.43 96.6898C258.75 96.6398 261.06 97.0998 263.19 98.0298C265.08 98.8698 266.7 100.23 267.85 101.95C269.05 103.87 269.65 106.1 269.57 108.36C269.57 112.19 268.13 115.16 265.26 117.26C262.39 119.36 258.12 120.42 252.47 120.41H231.16V120.42ZM237.54 115.25H252.22C255.75 115.25 258.45 114.65 260.32 113.46C262.19 112.27 263.13 110.4 263.13 107.85C263.13 105.26 262.19 103.36 260.32 102.17C258.45 100.98 255.75 100.38 252.22 100.38H236.97V95.2098H250.62C253.85 95.2098 256.36 94.6098 258.15 93.4198C259.94 92.2298 260.83 90.4398 260.83 88.0598C260.83 85.6798 259.94 83.8898 258.15 82.6998C256.36 81.5098 253.86 80.9098 250.62 80.9098H237.54V115.23V115.25Z" fill="#A614C3"/>
<path d="M294.52 75.7598H288.14V120.42H294.52V75.7598Z" fill="#A614C3"/>
<path d="M346.34 75.7598H314.81V81.3198H346.34V75.7598Z" fill="#A614C3"/>
<path d="M322.78 100.429H314.81V95.0593H322.55V95.0293H343.6V100.449H322.78V100.419V100.429Z" fill="#A614C3"/>
<path d="M347.24 114.859V120.419H314.81V114.889H322.78V114.859H347.24Z" fill="#A614C3"/>
<path d="M367.34 120.42V75.7598H373.72V114.87H397.9V120.42H367.34Z" fill="#3A2968"/>
<path d="M423.87 75.7598H417.49V120.42H423.87V75.7598Z" fill="#3A2968"/>
<path d="M485.54 75.7598V100.8L479.16 92.8798V75.7598H485.54Z" fill="#72C9B6"/>
<path d="M479.16 109.02L485.54 116.94V120.42H480.33L453.53 87.1698V120.42H447.12V75.7598H452.36L479.16 109.01V109.02Z" fill="#3A2968"/>
<path d="M549.13 120.42H541.66L524.62 100.56L524.59 100.53L520.84 96.14L540.62 75.75H547.9L528.84 95.87L549.12 120.41L549.13 120.42Z" fill="#3A2968"/>
<path d="M516.38 75.7598H510V120.42H516.38V75.7598Z" fill="#3A2968"/>
</svg>
