<svg width="612" height="237" viewBox="0 0 612 237" fill="none" xmlns="http://www.w3.org/2000/svg">
<path d="M96.5001 75.7598V100.88L90.1201 92.9098V75.7598H96.5001Z" fill="#72C9B6"/>
<path d="M58.0898 75.7598V120.42H64.4698V87.1398L91.2698 120.42H96.5098V117.07L82.9298 100.11L63.3398 75.7598H58.0998H58.0898Z" fill="#A614C3"/>
<path d="M136.95 120.929C133.71 120.959 130.5 120.369 127.48 119.199C124.66 118.119 122.1 116.479 119.92 114.389C117.79 112.329 116.1 109.869 114.94 107.149C113.73 104.289 113.12 101.199 113.15 98.0892C113.12 94.9792 113.72 91.8992 114.94 89.0292C116.1 86.3092 117.79 83.8392 119.92 81.7892C122.08 79.6992 124.64 78.0692 127.45 76.9792C130.48 75.8092 133.7 75.2192 136.95 75.2492C140.17 75.2192 143.36 75.7892 146.36 76.9392C149.16 78.0192 151.72 79.6492 153.89 81.7192C156.03 83.7592 157.72 86.2292 158.87 88.9592C160.07 91.8492 160.66 94.9592 160.62 98.0892C160.66 101.219 160.06 104.319 158.87 107.209C157.73 109.939 156.03 112.399 153.89 114.449C151.72 116.529 149.16 118.159 146.36 119.239C143.36 120.389 140.16 120.959 136.95 120.929ZM136.95 115.249C139.3 115.269 141.63 114.839 143.81 113.969C145.87 113.149 147.73 111.929 149.3 110.369C150.86 108.809 152.09 106.949 152.93 104.909C153.82 102.749 154.26 100.429 154.24 98.0892C154.26 95.7492 153.82 93.4292 152.93 91.2592C152.09 89.2192 150.85 87.3692 149.29 85.8092C147.72 84.2492 145.86 83.0192 143.8 82.1992C141.62 81.3392 139.29 80.8992 136.94 80.9292C134.57 80.8992 132.22 81.3392 130.02 82.1992C125.86 83.8592 122.55 87.1192 120.84 91.2592C119.95 93.4292 119.51 95.7492 119.53 98.0892C119.51 100.429 119.95 102.749 120.84 104.909C122.55 109.049 125.87 112.319 130.03 113.969C132.23 114.839 134.58 115.269 136.95 115.249Z" fill="#A614C3"/>
<path d="M176.09 120.42V75.7598H193.51C199.29 75.7598 203.85 77.1298 207.16 79.8698C210.48 82.6098 212.14 86.4298 212.13 91.3198C212.21 94.2498 211.44 97.1398 209.9 99.6398C208.35 102.01 206.13 103.87 203.52 104.97C200.35 106.28 196.94 106.91 193.51 106.82H179.6L182.47 103.88V120.4H176.09V120.42ZM182.47 104.53L179.6 101.41H193.32C197.4 101.41 200.5 100.53 202.6 98.7598C204.7 96.9898 205.76 94.5198 205.76 91.3298C205.76 88.1398 204.71 85.6698 202.6 83.9298C200.49 82.1898 197.4 81.3098 193.32 81.3098H179.6L182.47 78.1198V104.53ZM205.95 120.42L194.6 104.22H201.42L212.9 120.42H205.94H205.95Z" fill="#A614C3"/>
<path d="M231.16 120.42V75.7598H251.19C256.34 75.7598 260.29 76.7898 263.06 78.8498C265.77 80.7998 267.32 83.9698 267.21 87.2998C267.28 89.4598 266.72 91.5898 265.58 93.4298C264.5 95.0798 262.99 96.4098 261.21 97.2598C259.36 98.1598 257.33 98.6198 255.28 98.5998L256.43 96.6898C258.75 96.6398 261.06 97.0998 263.19 98.0298C265.08 98.8698 266.7 100.23 267.85 101.95C269.05 103.87 269.65 106.1 269.57 108.36C269.57 112.19 268.13 115.16 265.26 117.26C262.39 119.36 258.12 120.42 252.47 120.41H231.16V120.42ZM237.54 115.25H252.22C255.75 115.25 258.45 114.65 260.32 113.46C262.19 112.27 263.13 110.4 263.13 107.85C263.13 105.26 262.19 103.36 260.32 102.17C258.45 100.98 255.75 100.38 252.22 100.38H236.97V95.2098H250.62C253.85 95.2098 256.36 94.6098 258.15 93.4198C259.94 92.2298 260.83 90.4398 260.83 88.0598C260.83 85.6798 259.94 83.8898 258.15 82.6998C256.36 81.5098 253.86 80.9098 250.62 80.9098H237.54V115.23V115.25Z" fill="#A614C3"/>
<path d="M294.52 75.7598H288.14V120.42H294.52V75.7598Z" fill="#A614C3"/>
<path d="M346.34 75.7598H314.81V81.3198H346.34V75.7598Z" fill="#A614C3"/>
<path d="M322.78 100.429H314.81V95.0593H322.55V95.0293H343.6V100.449H322.78V100.419V100.429Z" fill="#A614C3"/>
<path d="M347.24 114.859V120.419H314.81V114.889H322.78V114.859H347.24Z" fill="#A614C3"/>
<path d="M367.34 120.42V75.7598H373.72V114.87H397.9V120.42H367.34Z" fill="#3A2968"/>
<path d="M423.87 75.7598H417.49V120.42H423.87V75.7598Z" fill="#3A2968"/>
<path d="M485.54 75.7598V100.8L479.16 92.8798V75.7598H485.54Z" fill="#72C9B6"/>
<path d="M479.16 109.02L485.54 116.94V120.42H480.33L453.53 87.1698V120.42H447.12V75.7598H452.36L479.16 109.01V109.02Z" fill="#3A2968"/>
<path d="M549.13 120.42H541.66L524.62 100.56L524.59 100.53L520.84 96.14L540.62 75.75H547.9L528.84 95.87L549.12 120.41L549.13 120.42Z" fill="#3A2968"/>
<path d="M516.38 75.7598H510V120.42H516.38V75.7598Z" fill="#3A2968"/>
</svg>
