<svg width="542" height="542" viewBox="0 0 542 542" fill="none" xmlns="http://www.w3.org/2000/svg">
<rect x="114.861" y="154.344" width="315.868" height="82.5563" rx="41.2781" fill="black"/>
<circle cx="271" cy="271" r="271" fill="black"/>
<path d="M39.4844 226.132C39.4844 244.746 53.6532 260.051 71.794 261.85C73.7667 262.045 75.3784 260.419 75.3784 258.437V193.828C75.3784 191.845 73.7667 190.219 71.794 190.415C53.6532 192.214 39.4844 207.518 39.4844 226.132Z" fill="white"/>
<path d="M502.516 226.132C502.516 244.746 488.347 260.051 470.206 261.85C468.233 262.045 466.622 260.419 466.622 258.437V193.828C466.622 191.845 468.233 190.219 470.206 190.415C488.347 192.214 502.516 207.518 502.516 226.132Z" fill="white"/>
<rect x="96.9141" y="139.987" width="348.172" height="118.45" rx="57.4305" fill="white"/>
<rect x="114.861" y="154.344" width="315.868" height="82.5563" rx="41.2781" fill="#A614C3"/>
<path d="M226.141 256.642H317.659C355.348 362.53 349.975 421.755 321.261 445.086C292.547 468.417 254.838 469.408 226.129 448.675C197.421 427.943 188.44 367.914 226.141 256.642Z" fill="white"/>
<path d="M247.23 291.781C253.052 293.28 263.487 298.981 258.97 309.925C256.151 316.755 234.813 289.875 247.23 291.781Z" fill="black"/>
<path d="M298.078 290.742C292.211 291.354 281.247 295.503 283.997 307.284C285.713 314.636 310.399 290.742 298.078 290.742Z" fill="black"/>
</svg>
